<?xml version="1.0" encoding="UTF-8" standalone="no"?>
<svg xmlns="http://www.w3.org/2000/svg" width="200" height="118" viewBox="0 0 200 118">
    <g fill="none" fill-rule="evenodd">
        <path fill="#F2F8FB" d="M55.666 5.046C24.843 5.046.543 26.797.543 57.056c0 30.26 22.715 60.76 92.692 60.76 69.978 0 106.065-31.744 106.065-49.83s-22.207-26.634-53.812-29.663c-31.605-3.03-62.144-33.277-89.822-33.277"/>
        <path fill="#DAE8ED" d="M194.374 81.017c-3.394 4.838-8.544 9.88-15.418 14.616 1.079-2.66 1.551-6.026-.677-9.118-4.606-6.372-15.323-6.402-17.598-8.126-2.268-1.723 8.063-.417 13.354-1.864 4.488-1.22 15.118-.44 20.339 4.492M49.617 69.74s25.665-3.655 33.209-3.495c7.543.158 11.999 3.386 17.096 3.495 5.096.108 17.215-2.592 26.722-2.199 9.506.393 21.293 2.806 25.95 5.976 4.66 3.17 5.27-.217-1.595-3.777-6.866-3.56-25.695-5.571-36.59-5.315-10.894.256-22.323-2.552-36.213-2.233-13.89.32-39.477 5.931-28.58 7.548M40.303 73.708s-9.654.214-16.567 3.037c-6.922 2.824-9.859 3.516-14.244 2.958a40.799 40.799 0 0 0-4.268-.291 47.91 47.91 0 0 1-1.291-3.099c1.527-.45 3.299-.7 5.244-.504 7.118.724 15.07-4.5 25.535-4.295 10.465.212 11.48 1.715 5.59 2.194"/>
        <path fill="#BECFD3" d="M174.035 90.095c.118 2.344-.795 6.419-3.126 10.494-10.354 5.688-23.512 10.604-39.425 13.712-7.662.102-14.322.062-18.37 1.14-1.945.52-4.048 1.204-6.205 1.951-3.811.244-7.732.386-11.772.41 4.032-2.18 8.78-4.705 10.804-6.6 4.456-4.162-3.237-.48-13.97 2.564-6.015 1.699-11.881 2.682-17.338 3.256-33.134-2.965-53.118-14.01-63.842-28.256 1.102-3.037 3.386-4.69 7.315-5.484 5.937-1.203 18.055-.48 18.645-1.966.591-1.48-4.535-1.424-9.661-1.613-5.126-.189 1.504-2.871 9.661-3.178 8.158-.3 16.292 2.077 22.378 0 6.087-2.07 19.898-6.616 24.93-6.773 5.031-.158 1.67 1.44-.016 2.879-5.701 4.877 15.338-.96 15.882.645.536 1.597-4.307 1.95-5.732 2.336-1.418.378 1.141 1.377 12.677 0 11.536-1.376 38.283-2.281 48.063 4.09 9.771 6.373 1.118 15.781 2.314 16.442 1.205.654 8.56-5.836 7.126-11.076-1.433-5.231 9.378-.401 9.662 5.027"/>
        <path fill="#9EB6BA" d="M36.914 103.33s-2.323.138-1.833 1.177c.49 1.04 1.953 1.896 1.833 2.202-.119.306-1.589-.061-1.221.49.367.55 3.245 1.703 7.837 2.504 4.592.799 12.245 1.472 14.94 1.044 2.694-.428 6.593-.771 9.266-2.037s-1.307-1.328-2.532-1.328c-1.224 0-28.29-4.051-28.29-4.051M133.312 87.86s8.65 2.986 8.777 6.11c.127 3.122-5.367 6.624-10.956 7.097-5.588.473 1.326 1.797 8.335-.568 7.01-2.366 7.569-7.939 2.18-11.735-5.39-3.795-10.04-4.353-10.04-4.353l1.704 3.45zM104.83 82.616s-13.475-1.794-17.133 2.463c-4.488 5.227 10.142 13.005 20.73 14.946 10.59 1.94-5.904-2.729-11.36-5.806-5.457-3.077-10.156-8.677-4.145-9.653 5.232-.851 13.046.477 13.046.477l-1.138-2.427z"/>
        <path fill="#809B9E" d="M122.33 78.246s20.865 3.258 28.123 6.825c7.257 3.567 3.24 9.709 1.295 10.91-1.943 1.201 9.554-4.567 3.95-10.485-1.91-2.019-6.388-4.178-13.609-5.662-12.986-2.672-19.758-1.588-19.758-1.588M74.68 91.33c-2.928-.165-7 .173-16.637-2.053-9.646-2.22-28-2.038-36.252-.92-5.26.708-6.717 3.264-7.087 5.018a50.43 50.43 0 0 1-2.236-2.501c-.126-1.59.74-3.273 4.04-4.358 7.881-2.573 21.275-1.149 30.968-.032 9.693 1.11 18.441 3.446 21.969 3.72 3.518.277 8.157 1.3 5.236 1.126"/>
        <path fill="#F2F8FB" d="M122.313 20.22c7.74 5.696 20.386 10.164 29.347 10.935.858.07 1.676.11 2.456.118 3.748.024 6.552-.779 7.59-2.643.08-.133.15-.275.214-.417.086-.18.165-.362.228-.55.976-2.723-.142-5.696-2.866-8.74-1.331-1.487-3.04-2.982-5.079-4.469-2.449-1.801-5.378-3.587-8.685-5.326-1.055-.55-2.15-1.093-3.276-1.636-.362-.173-.74-.346-1.133-.519-9.276-4.067-25.08-6.805-28.71-4.429-3.77 2.47-2.117 8.834 9.914 17.676"/>
        <path fill="#454C54" d="M110.807 63.73s-1.548-.31-2.129.77c-.58 1.08-9.637 27.726-9.637 27.726s12.13 5.976 22.766 6.64c10.635.665 13.958-2.905 14.041-3.9.083-.997.915-7.97.915-7.97s-.998-6.89-7.478-12.95c-6.482-6.06-18.478-10.316-18.478-10.316"/>
        <path fill="#F4B28E" d="M70.365 26.02s-5.22.702-8.944.78c-2.197.047-3.874-.119-3.685-.78.504-1.777.968-12.46.11-18.848-.544-3.98.953-6.049 3.102-6.207 1.284-.094 2.811.504 4.268 1.795 3.866 3.437 2.52 10.737 2.701 13.561.189 2.825 2.448 9.7 2.448 9.7"/>
        <path fill="#C98165" d="M61.421 26.8c-2.197.047-3.874-.118-3.686-.78.505-1.777.97-12.46.111-18.848-.543-3.98.953-6.05 3.102-6.207-1.276.134-2.354 3.234-1.488 7.08.897 3.942 4.15 5.617 4.103 6.829-.056 1.164-4.662 3.257-2.142 11.926"/>
        <path fill="#332928" d="M40.306 87.858c.147-1.386 1.39-1.672 2.918-1.1 1.53.573 18.253 9.166 20.308 10.837 2.054 1.67 3.335 3.684 2.719 5.04-.616 1.357-1.811 2.55-7.162 2.838-5.352.285-18.783-6.063-18.783-6.063V87.858z"/>
        <path fill="#F4B28E" d="M87.137 40.826c.055 1.322-.346 2.407-.944 3.202 0 0-.009 0-.017.008-.668.896-1.606 1.416-2.416 1.47 0 0 .48.386.96 1.063.543.778 1.087 1.943.922 3.374-.142 1.267-.741 2.164-1.512 2.762 0 0 0 .007-.017.015-.008.008-.031.024-.063.048h-.008c-.842.628-1.874.92-2.763.999 0 0 .637.283 1.322.81.804.63 1.67 1.581 1.583 2.793a5.808 5.808 0 0 1-.125.857c-.402 1.77-1.694 3.044-4.009 3.58-2.684.613-7.126 1.148-7.126 1.148s.693 1.605-1.22 3.445c-1.92 1.833-2.457 4.21-5.441 5.358 0 0-2.685 6.033-3.724 13.428-1.047 7.395-2.716 16.245-2.716 16.245s-10.82 1.707-16.047-5.53v-.008c-.827-1.133-1.504-2.486-1.986-4.099 0 0 5.67-28.312 7.852-39.097 2.18-10.778 4.574-20.69 4.904-23.199.331-2.502 1.74-4.46 4.907-4.35 3.157.11 21.362 1.526 24.526 3.264 1.67.929 1.82 2.856 1.293 4.61 0 0 0 .008-.01.016-.464 1.558-1.455 2.974-2.376 3.43 0 0 4.14 1.526 4.25 4.358"/>
        <path fill="#E09773" d="M84.059 58.227c-.402 1.77-1.693 3.045-4.009 3.58-2.684.613-7.126 1.148-7.126 1.148s.693 1.605-1.22 3.446c-1.92 1.833-2.457 4.208-5.441 5.357 0 0-2.685 6.034-3.724 13.428-1.047 7.395-2.716 16.245-2.716 16.245s-3.544.558-7.552-.323c-3-.653-6.26-2.108-8.496-5.207 1.756.59 4.614 1.203 7.267.165 4.214-1.644 5.261-20.438 6.056-22.94.788-2.493 2.433-1.574 3.418-1.77.984-.197-.985-1.384-.788-2.367.197-.984.063-5.853-1.189-7.167-1.244-1.314-3.04-4.02-3.086-5.711-.056-1.558.913-2.344 1.038-2.43-.51.857-.054 2.697 1.26 4.136 1.316 1.449 3.686 2.534 9.213 2.487 5.047-.047 13.968.055 17.095-2.077M55.912 30.373c.14 1.13.989 2.4 0 4-.99 1.6-1.037 2.353-.943 3.153.095.8-.8-.659-.377-2.259.424-1.6.83-1.835.84-2.917a4.802 4.802 0 0 1 .48-1.977M55.912 40.35s.027 1.6-.48 2.776c-.51 1.177-1.216 2.353-.51 3.718.707 1.364 1.083 1.6 1.225 2.588.142.989-.754-.706-1.931-2.117-1.178-1.412-.66-2.872 0-4.048.66-1.176 1.696-2.917 1.696-2.917M85.263 33.038c-.464 1.557-1.457 2.973-2.378 3.43 0 0-14.48-.503-16.3-.771-1.826-.268-3.07-1.636-3.07-1.636-1.464-2.298 2.937.566 4.717.684 1.771.118 5.685-.023 11.023 0 5.001.031 5.914-1.51 6.008-1.707M83.76 45.507s.48.385.96 1.062h-.007c-2.017-.677-12.749-1.188-15.638-1.526-2.89-.346-5.474-1.62-4.607-2.148.867-.535 2.252.488 3.897 1.133 1.638.644 9.466.503 12.89.684 3.23.173 4.756-.59 4.921-.676-.668.897-1.606 1.416-2.416 1.47M81.28 53.767s.637.282 1.322.81c-2.386-.56-6.205-.621-9.772-.905-3.984-.306-7.275-.385-7.488-1.109-.205-.724.7-1.022 1.747-.527 1.056.488 1.86.559 9.308.936 5.969.307 7.339-.047 7.646-.205-.843.63-1.874.92-2.764 1"/>
        <path fill="#F4B28E" d="M164.374 40.228c-.118 1.762-1.315 3.72-2.717 4.515-1.74.992-4.354 1.621-4.354 1.621l-.016.032-.008.008c-.417.628-6.582 10.03-12.157 13.9-5.78 4.012-8.552 3.453-9.819 5.514-1.26 2.054-4.828 21.657-4.828 21.657s-2.598 1.015-6.897-4.193c-.149-.19-.307-.377-.464-.582a39.266 39.266 0 0 0-1.874-2.218c-1.56-1.73-3.291-3.461-4.921-5.137-2.764-2.848-5.229-5.538-6.025-7.797v-.007a4.837 4.837 0 0 1-.25-1.133s3.574-11.823 3.456-16.677c-.12-4.862-.465-10.156 2.534-18.337 2.844-7.757.899-20.312.12-24.638a18.729 18.729 0 0 1-.12-.638c-.668-3.555-.613-5.53 1.497-5.687 2.103-.158 6.3 2.525 7.882 8.535 1.582 6.01.717 12.334 3.56 13.916 2.849 1.581 5.936-4.193 10.684-6.403 4.748-2.21 7.913-.63 8.229.314.323.952.637 2.14.637 2.14s2.134.158 3.166 1.18c1.03 1.03 3.558 5.026 3.558 5.026s2.457.276 3.008 1.063c.552.795 2.535 6.325 2.535 6.325s2.93 4.507 3.481 6.482c.11.385.142.794.103 1.22"/>
        <path fill="#E5A17F" d="M164.374 40.228c-.118 1.762-1.315 3.72-2.717 4.515-1.74.992-4.354 1.621-4.354 1.621l-.016.032-.008.008c-.363.275-12.102 9.243-17.882 13.317-5.874 4.139-8.055 10.346-8.055 10.346l-7.764 13.215c-.149-.19-.307-.377-.464-.582a39.266 39.266 0 0 0-1.874-2.218c-1.56-1.73-3.291-3.461-4.921-5.137 1.715-4.539 6.345-16.583 7.558-17.56 1.489-1.202 5.976-1.447 8.607-6.119 2.63-4.672-.473-12.799.504-12.626.976.173 2.409-2.116 3.558-3.996 1.15-1.88 6.088-7.183 8.45-6.074 2.362 1.11 5.693-.046 5.401.818-.283.867-3.37 3.667-5.496 5.869-2.118 2.211-2.654 3.722-1.205 2.81 1.45-.921 7.961-7.309 9.174-5.799 1.205 1.503 4.386 2.399 4.386 2.399s-7.064 4.878-9.395 6.467c2.6-1.573 11.024-6.105 11.442-4.39.464 1.927 1.528 2.258 2.48 2.573.614.197 1.811.393 2.59.511"/>
        <path fill="#C98165" d="M162.917 39.63c-.237 1.346-5.717 4.178-7.016 5.287-1.3 1.117 1.402 1.447 1.402 1.447l-.015.032c-.387.582-6.576 10.022-12.167 13.907-5.778 4.013-8.55 3.455-9.818 5.515-1.26 2.053-4.827 21.657-4.827 21.657s-2.788 1.085-7.362-4.775a38.617 38.617 0 0 0-1.874-2.218c1.669-3.382 4.267-8.811 5.055-11.392 1.18-3.901-.126-7.41.236-8.787.354-1.383 9.497.308 15.44-4.759 5.946-5.066 6.34-8.338 6.34-8.338s-1.772.715-2.937-.22c-1.158-.945-.662-3.43-.662-3.43s-2.063 1.219-3.354 1.108c-1.292-.109-3.063-1.218-2.843-4.2 0 0-1.268 1.156-2.983 1.212 0 0-.056 4.98-.89 8.291-.828 3.32-.111-4.161-.694-8.473 0 0-1.826-.566-2.023-3.288-.205-2.714 2.96-7.252 4.582-9 1.623-1.746 3.087-2.635 3.087-3.083 0-.44-.732-2.186-.488-4.318 0 0 .953 3.24 1.913 4.145 0 0 .472.583 1.032.52.55-.064-.134.393-2.182 1.879-2.047 1.495-4.126 3.603-5.944 7.3-1.82 3.705.456 5.232 1.818 5.036 1.37-.197 3.378-2.337 5.623-3.863 2.244-1.527 7.63-5.326 8.15-6.104.52-.78.81-2.495.33-4.217-.488-1.715-1.3-5.908-1.3-5.908s2.922 6.915 2.63 8.897c-.29 1.974-5.787 5.9-7.636 7.458-1.852 1.557-3.308 3.572-3.119 5.002.197 1.425 1.92 1.976 3.284 1.197 1.361-.78 7.133-4.8 9.298-5.98 2.166-1.17 4.268-2.47 4.331-3.46.063-.929-1.74-6.6-1.96-7.293.314.716 2.842 6.672 3.133 7.536.315.93-2 2.596-5.74 4.807-3.747 2.202-6.197 4.444-6.614 5.742-.425 1.3.276 2.644 2.228 1.669 1.945-.976 5.985-3.43 8.544-4.594 2.55-1.158 4.456-2.408 4.874-3.061.393-.613-.339-3.366-.41-3.643.158.308 1.748 3.478 1.528 4.76"/>
        <path fill="#C98165" d="M130.719 28.238s2.393 4.453 2.55 6.581c.156 2.129 1.035-.33.977-1.444-.058-1.113-3.315-6.623-3.527-5.137"/>
        <path fill="#E09773" d="M116.91 53.357c1.385 2.306-.89-.778-1.986.323-.92.928-3.755 10.785-4.63 13.86a4.834 4.834 0 0 1-.251-1.132s3.575-11.823 3.457-16.676c-.119-4.863-.465-10.157 2.535-18.338 2.843-7.756.898-20.311.118-24.638 0 0 2.685 9.07 2.622 16.779-.07 7.71-3.252 12.855-3.724 17.857-.48 5.003.472 9.66 1.858 11.965"/>
        <path fill="#809B9E" d="M76.413 112.728c-3.693.999-9.638 2.108-15.197 2.533h-.008a88.882 88.882 0 0 1-3.385-.646c4.661-.26 10.826-.99 16.504-2.902 11.086-3.737 14.574-8.74 13.937-11.014-.63-2.28-5.906-3.083-11.277-3.36-7.18-.368-11.566-2.454-12.063-2.705.513.134 4.765 1.196 11.3 1.345 6.968.157 15.59.346 16.796 4.783 1.203 4.43-10.08 10.187-16.607 11.966M29.665 99.401c2.898 1.29 2.181 4.744 3.016 6.938a73.872 73.872 0 0 1-2.843-1.494 4.255 4.255 0 0 1-.047-.417c-.094-1.542.26-2.761-2.961-4.146-2.905-1.25-5.055-3.894-.314-5.664 4.133-1.542 13.787-1.754 13.787-1.754l1.487 3.713s-3.7-1.196-9.172-.881c-5.473.315-5.67 2.501-2.953 3.705"/>
        <path fill="#9EB6BA" d="M74.486 101.989s5.515-.061 5.879 1.998c.364 2.058-9.03 4.723-9.03 4.723s6.6-2.431 6.767-4.236c.167-1.804-3.616-2.485-3.616-2.485"/>
        <path fill="#6DBA3F" d="M18.07 75.395s.077-12.33 0-16.375c-.077-4.046-1.298 11.372-1.298 11.372s-4.585-16.715-5.273-19.539c-.687-2.825-.229 3.74 1.07 9.922 1.299 6.182 2.073 14.274 2.073 14.274s1.518 1.456 3.428.346"/>
        <path fill="#3C9E32" d="M177.312 76.85V54.532c0-3.608.252-6.796.756-6.712.505.084-.168 13.843.42 20.136.588 6.293.672 8.894.672 8.894s.84-9.718 1.428-10.605c.587-.89.336 11.192.336 11.192s-2.94 1.007-3.612-.587"/>
        <path fill="#809B9E" d="M160.5 100.117c-6.063 1.613-8.34 1.802-12.126 3.792-3.788 1.982-10.606 5.916-21.882 4.798-11.268-1.109-19.607-4.397-21.504-3.225-1.71 1.054-1.638 8.968-15.898 12.296a86.108 86.108 0 0 1-1.976-.047c3.378-1.188 8.716-3.54 11.432-7.27 4.174-5.703.292-8.59 3.607-8.472 3.315.118 14.015 4.185 27.37 4.28 13.354.093 15.536-5.87 21.787-6.246 6.253-.379 19.135-6.058 16.576-11.069-2.56-5.019 2.841-1.132 3.41 1.416.566 2.556-4.742 8.142-10.796 9.747"/>
        <path fill="#BECFD3" d="M99.535 64.184s3.198-.355 3.98.497-1.776 2.81-5.33 2.86c-3.553.05-7.816-1.139-6.253-1.715 1.563-.577-1.382-.508-1.563.576-.18 1.085 5.344 2.013 8.39 1.91 3.045-.103 6.865-2.27 7.175-3.765.31-1.494-6.143-1.356-7.228-.858-1.084.497.829.495.829.495"/>
        <path fill="#809B9E" d="M84.644 81.319s-4.094 2.082-3.73 4.876c.367 2.794-7.97.384-11.552.31-3.583-.072-.788-1.023 3.956-.73 4.746.292 5.55.438 5.988-.876.439-1.316 3.51-3.58 5.338-3.58"/>
        <path fill="#BECFD3" d="M190.61 85.681a60.068 60.068 0 0 1-4.08 4.013c2.71-6.694-9.455-9.637-17.22-9.975-7.763-.331-12.18-2.486-12.054-3.03.157-.747 4.094 1.339 10.77 1.661 3.797.18 9.946-.818 17.221 2.25 3.552 1.494 4.906 3.46 5.363 5.081"/>
        <path fill="#DAE8ED" d="M22.226 61.43s4.096-.019 6.939-.771c2.842-.752 7.691-.383 10.868-.359 3.177.025-.167-.978-4.096-1.061-3.93-.084-7.943 1.288-10.45 1.061-2.51-.226-6.911 1.344-3.261 1.13"/>
        <path fill="#9EB6BA" d="M81.167 72.08s-5.358.273-8.717 3.085c-3.361 2.812-1.817 4.445-3.089 4.536-1.27.09-.97-3.653 1.565-5.573 3.264-2.469 12.919-3.27 10.24-2.048"/>
        <path fill="#6DBA3F" d="M187.83 73.98s-.209-5.98.988-11.195c1.195-5.216 1.046-2.986.897.904-.15 3.89-.025 8.297.1 8.67.124.375.453-3.735.999-5.005s.321 6.626.321 6.626-1.675 1.397-3.305 0"/>
        <path fill="#C98165" d="M71.704 66.4c-1.92 1.833-2.457 4.21-5.44 5.358 0 0-2.686 6.033-3.725 13.428-1.047 7.395-2.717 16.245-2.717 16.245s-3.543.558-7.55-.323c2.881-2.305 5.59-10.297 6.818-16.04 1.362-6.388 3.055-12.13 4.575-13.169 1.527-1.03 1.205-3.54 1.645-4.248.45-.708 1.41.22 2.119-1.03.708-1.258-.158-3.108 1.196-3.25 1.363-.133 4.3-.416 4.3-.416s.693 1.604-1.22 3.445"/>
        <path fill="#454C54" d="M66.248 102.635l-.575 5.742c-14.757 4.5-28.236-3.87-28.899-4.287-.014-.008-.022-.016-.022-.016l3.55-16.213s1.087 6.152 9.276 9.195c8.197 3.038 12.393 4.996 13.993 6.011 1.59 1.007 2.677-.432 2.677-.432"/>
        <path fill="#6DBA3F" d="M95.606 65.763s-1.055-16.058-1.364-19.716c-.311-3.659.992.744 1.737 5.084.744 4.34 2.234 11.656 2.234 11.656s1.8-14.075 2.296-17.485c.496-3.41 1.675-4.339 2.544-4.277.87.061 3.537 3.843 4.965 5.208 1.428 1.364 3.04 1.86 2.979 2.108-.062.248-2.633-.569-4.433-1.772-1.8-1.205-3.556-3.56-3.967-3.188-.413.372-2.212 21.018-2.212 21.886 0 .869-3.103 1.426-4.779.496"/>
        <path fill="#FFF" d="M72.472 110.464s-12.69 2.301-19.116 1.388c-6.426-.914-9.706-1.095-7.723.214 1.983 1.309 10.415 1.69 17.026 1.004 6.612-.685 13.398-3.538 9.813-2.606M85.388 85.07s-.227 5.929 2.655 8.507c2.883 2.576-7.92.378-12.913.302-4.992-.075-5.524-.572-2.792-.74 2.732-.17 9.03.034 10.243-.712 1.214-.746-2.125-1.953-4.022-2.334-1.896-.383-.075-.762 2.429-.61 2.503.152 2.58-.703 2.807-2.398.228-1.696 1.82-4.531 1.593-2.014M142.089 85.884s5.11.892 6.57 3.564c1.458 2.674-1.38 8.47-2.92 9.5-1.54 1.03 2.105 1.417 5.352-4.33 3.245-5.747-2.433-8.093-8.19-9.547-5.756-1.455-3.265.136-.812.813M69.933 83.282s4.644.14 6.257-.514c1.613-.656 5.202-3.058 10.676-3.823 5.474-.764 10.91.327 13.055 0 2.146-.327-5.114-1.625-11.79-1.867-6.676-.243-12.689 3.934-15.084 4.24-2.396.307-8.174 2.185-3.114 1.964"/>
        <path fill="#454C54" d="M131.053 99.253s-5.444 1.395-10.513 1.229c-5.069-.166-10.45-2.48-15.77-3.542-5.319-1.063-2.03.471.814 1.778s.125 1.222-1.377 1.222c-1.501 0 8.197 3.314 15.456 3.752 7.26.437 1.987-.337-3.167-1.544-5.155-1.207 2.355-.418 7.486-.542 5.13-.125 11.076-3.666 7.071-2.353"/>
        <path fill="#809B9E" d="M87.142 108.034c-1.642.948-2.637 3.015-.277 2.245 2.36-.771 5.894-3.19 6.909-4.797 1.015-1.608 2.18.27 0 2.862-2.181 2.59-7.595 5.258-12.557 6.648-4.962 1.389-3.12-.264-.226-1.917 2.895-1.652 1.906-2.714.313-2.075-1.594.64 1.003-.816 3.334-2.582 2.331-1.765 2.504-.384 2.504-.384"/>
    </g>
</svg>
